<svg width="127" height="118" viewBox="0 0 127 118" fill="none" xmlns="http://www.w3.org/2000/svg">
<rect y="26" width="127" height="66" rx="18" fill="#E5E2E2"/>
<path d="M26.8764 72V45.8182H36.4645C38.3224 45.8182 39.8608 46.125 41.0795 46.7386C42.2983 47.3437 43.2102 48.1662 43.8153 49.206C44.4205 50.2372 44.723 51.4006 44.723 52.696C44.723 53.7869 44.5227 54.7074 44.1222 55.4574C43.7216 56.1989 43.1847 56.7955 42.5114 57.2472C41.8466 57.6903 41.1136 58.0142 40.3125 58.2188V58.4744C41.1818 58.517 42.0298 58.7983 42.8565 59.3182C43.6918 59.8295 44.3821 60.5582 44.9276 61.5043C45.473 62.4503 45.7457 63.6009 45.7457 64.956C45.7457 66.294 45.4304 67.4957 44.7997 68.5611C44.1776 69.6179 43.2145 70.4574 41.9105 71.0795C40.6065 71.6932 38.9403 72 36.9119 72H26.8764ZM30.8267 68.6122H36.5284C38.4205 68.6122 39.7756 68.2457 40.5938 67.5128C41.4119 66.7798 41.821 65.8636 41.821 64.7642C41.821 63.9375 41.6122 63.179 41.1946 62.4886C40.777 61.7983 40.1804 61.2486 39.4048 60.8395C38.6378 60.4304 37.7259 60.2259 36.669 60.2259H30.8267V68.6122ZM30.8267 57.1449H36.1193C37.0057 57.1449 37.8026 56.9744 38.5099 56.6335C39.2259 56.2926 39.7926 55.8153 40.2102 55.2017C40.6364 54.5795 40.8494 53.8466 40.8494 53.0028C40.8494 51.9205 40.4702 51.0128 39.7116 50.2798C38.9531 49.5469 37.7898 49.1804 36.2216 49.1804H30.8267V57.1449ZM58.5874 72.3963C56.6527 72.3963 54.9865 71.983 53.5888 71.1562C52.1996 70.321 51.1257 69.1491 50.3672 67.6406C49.6172 66.1236 49.2422 64.3466 49.2422 62.3097C49.2422 60.2983 49.6172 58.5256 50.3672 56.9915C51.1257 55.4574 52.1825 54.2599 53.5376 53.3991C54.9013 52.5384 56.495 52.108 58.3189 52.108C59.4268 52.108 60.5007 52.2912 61.5405 52.6577C62.5803 53.0241 63.5135 53.5994 64.3402 54.3835C65.1669 55.1676 65.8189 56.1861 66.2962 57.4389C66.7734 58.6832 67.0121 60.196 67.0121 61.9773V63.3324H51.4027V60.4688H63.2663C63.2663 59.4631 63.0618 58.5724 62.6527 57.7969C62.2436 57.0128 61.6683 56.3949 60.9268 55.9432C60.1939 55.4915 59.3331 55.2656 58.3445 55.2656C57.2706 55.2656 56.3331 55.5298 55.532 56.0582C54.7393 56.5781 54.1257 57.2599 53.6911 58.1037C53.2649 58.9389 53.0518 59.8466 53.0518 60.8267V63.0639C53.0518 64.3764 53.282 65.4929 53.7422 66.4134C54.2109 67.3338 54.8629 68.0369 55.6982 68.5227C56.5334 69 57.5092 69.2386 58.6257 69.2386C59.3501 69.2386 60.0107 69.1364 60.6072 68.9318C61.2038 68.7187 61.7195 68.4034 62.1541 67.9858C62.5888 67.5682 62.9212 67.0526 63.1513 66.4389L66.7692 67.0909C66.4794 68.1562 65.9595 69.0895 65.2095 69.8906C64.468 70.6832 63.5348 71.3011 62.4098 71.7443C61.2933 72.179 60.0192 72.3963 58.5874 72.3963ZM80.4194 52.3636V55.4318H69.6935V52.3636H80.4194ZM72.57 47.6591H76.3924V66.2344C76.3924 66.9759 76.5032 67.5341 76.7248 67.9091C76.9464 68.2756 77.2319 68.527 77.5813 68.6634C77.9393 68.7912 78.3271 68.8551 78.7447 68.8551C79.0515 68.8551 79.32 68.8338 79.5501 68.7912C79.7802 68.7486 79.9592 68.7145 80.087 68.6889L80.7773 71.8466C80.5558 71.9318 80.2404 72.017 79.8313 72.1023C79.4222 72.196 78.9109 72.2472 78.2972 72.2557C77.2915 72.2727 76.354 72.0938 75.4847 71.7188C74.6154 71.3438 73.9123 70.7642 73.3754 69.9801C72.8384 69.196 72.57 68.2116 72.57 67.027V47.6591ZM90.3622 72.4347C89.1179 72.4347 87.9929 72.2045 86.9872 71.7443C85.9815 71.2756 85.1847 70.598 84.5966 69.7116C84.017 68.8253 83.7273 67.7386 83.7273 66.4517C83.7273 65.3437 83.9403 64.4318 84.3665 63.7159C84.7926 63 85.3679 62.4332 86.0923 62.0156C86.8168 61.598 87.6264 61.2827 88.5213 61.0696C89.4162 60.8565 90.3281 60.6946 91.2571 60.5838C92.4332 60.4474 93.3878 60.3366 94.1207 60.2514C94.8537 60.1577 95.3864 60.0085 95.7188 59.804C96.0511 59.5994 96.2173 59.267 96.2173 58.8068V58.7173C96.2173 57.6009 95.902 56.7358 95.2713 56.1222C94.6491 55.5085 93.7202 55.2017 92.4844 55.2017C91.1974 55.2017 90.1832 55.4872 89.4418 56.0582C88.7088 56.6207 88.2017 57.2472 87.9205 57.9375L84.3281 57.1193C84.7543 55.9261 85.3764 54.9631 86.1946 54.2301C87.0213 53.4886 87.9716 52.9517 89.0455 52.6193C90.1193 52.2784 91.2486 52.108 92.4332 52.108C93.2173 52.108 94.0483 52.2017 94.9261 52.3892C95.8125 52.5682 96.6392 52.9006 97.4062 53.3864C98.1818 53.8722 98.8168 54.5668 99.3111 55.4702C99.8054 56.3651 100.053 57.5284 100.053 58.9602V72H96.3196V69.3153H96.1662C95.919 69.8097 95.5483 70.2955 95.054 70.7727C94.5597 71.25 93.9247 71.6463 93.1491 71.9616C92.3736 72.277 91.4446 72.4347 90.3622 72.4347ZM91.1932 69.3665C92.25 69.3665 93.1534 69.1577 93.9034 68.7401C94.6619 68.3224 95.2372 67.777 95.6293 67.1037C96.0298 66.4219 96.2301 65.6932 96.2301 64.9176V62.3864C96.0938 62.5227 95.8295 62.6506 95.4375 62.7699C95.054 62.8807 94.6151 62.9787 94.1207 63.0639C93.6264 63.1406 93.1449 63.2131 92.6761 63.2812C92.2074 63.3409 91.8153 63.392 91.5 63.4347C90.7585 63.5284 90.081 63.6861 89.4673 63.9077C88.8622 64.1293 88.3764 64.4489 88.0099 64.8665C87.652 65.2756 87.473 65.821 87.473 66.5028C87.473 67.4489 87.8224 68.1648 88.5213 68.6506C89.2202 69.1278 90.1108 69.3665 91.1932 69.3665Z" fill="#1C1B1C"/>
</svg>
