<svg width="508" height="118" viewBox="0 0 508 118" fill="none" xmlns="http://www.w3.org/2000/svg">
<path fill-rule="evenodd" clip-rule="evenodd" d="M15.104 94.1H0V22H23.577L37.682 78.692L51.68 22H74.994V94.1H59.89V45.333C59.89 43.93 59.908 41.966 59.943 39.438C59.978 36.911 59.996 34.963 59.996 33.593L45.313 94.1H29.577L14.999 33.593C14.999 34.963 15.017 36.911 15.052 39.438C15.087 41.966 15.104 43.93 15.104 45.333V94.1Z" fill="white"/>
<path fill-rule="evenodd" clip-rule="evenodd" d="M85.6038 46.5557C89.5688 41.8597 96.3748 39.5117 106.023 39.5117C112.304 39.5117 117.882 40.6687 122.759 42.9847C127.636 45.2997 130.074 49.6697 130.074 56.0937V80.5507C130.074 82.2467 130.109 84.3007 130.179 86.7137C130.285 88.5397 130.583 89.7797 131.074 90.4317C131.565 91.0837 132.302 91.6217 133.284 92.0457V94.0997H116.97C116.514 93.0237 116.198 92.0127 116.023 91.0677C115.847 90.1217 115.707 89.0457 115.602 87.8387C113.532 89.9257 111.146 91.7037 108.444 93.1707C105.216 94.8987 101.568 95.7637 97.4978 95.7637C92.3048 95.7637 88.0158 94.3857 84.6298 91.6297C81.2448 88.8747 79.5518 84.9697 79.5518 79.9147C79.5518 73.3607 82.2708 68.6157 87.7088 65.6807C90.6908 64.0827 95.0768 62.9417 100.866 62.2567L105.971 61.6697C108.742 61.3437 110.725 60.9357 111.918 60.4467C114.058 59.5987 115.128 58.2787 115.128 56.4847C115.128 54.2997 114.312 52.7917 112.681 51.9607C111.049 51.1287 108.655 50.7127 105.497 50.7127C101.954 50.7127 99.4448 51.5277 97.9708 53.1587C96.9188 54.3657 96.2168 55.9957 95.8658 58.0497H81.3938C81.7098 53.3867 83.1128 49.5557 85.6038 46.5557ZM96.7608 84.0237C98.1638 85.0997 99.8838 85.6377 101.918 85.6377C105.146 85.6377 108.12 84.7577 110.839 82.9967C113.558 81.2357 114.97 78.0237 115.075 73.3607V68.1757C114.128 68.7297 113.172 69.1777 112.207 69.5207C111.242 69.8627 109.918 70.1807 108.234 70.4747L104.866 71.0617C101.708 71.5827 99.4448 72.2187 98.0768 72.9687C95.7608 74.2407 94.6028 76.2137 94.6028 78.8877C94.6028 81.2687 95.3218 82.9807 96.7608 84.0237Z" fill="white"/>
<path fill-rule="evenodd" clip-rule="evenodd" d="M154.209 103.443C155.823 104.715 158.542 105.351 162.366 105.351C167.769 105.351 171.383 103.671 173.207 100.313C174.4 98.1597 174.997 94.5407 174.997 89.4537V86.0297C173.558 88.3117 172.014 90.0237 170.365 91.1657C167.383 93.2847 163.506 94.3447 158.735 94.3447C151.367 94.3447 145.482 91.9397 141.078 87.1297C136.675 82.3197 134.474 75.8057 134.474 67.5887C134.474 59.6647 136.596 53.0037 140.842 47.6067C145.087 42.2097 151.104 39.5117 158.893 39.5117C161.77 39.5117 164.278 39.9187 166.418 40.7347C170.067 42.1367 173.014 44.7127 175.26 48.4627V40.7837H189.838V91.3607C189.838 98.2417 188.592 103.427 186.101 106.916C181.821 112.916 173.611 115.916 161.471 115.916C154.139 115.916 148.157 114.579 143.526 111.905C138.894 109.231 136.333 105.237 135.842 99.9207H152.156C152.577 101.552 153.262 102.726 154.209 103.443ZM151.683 75.9037C153.718 80.4037 157.367 82.6537 162.629 82.6537C166.138 82.6537 169.102 81.4227 171.523 78.9607C173.944 76.4987 175.155 72.5777 175.155 67.1967C175.155 62.1427 174.006 58.2947 171.707 55.6537C169.409 53.0117 166.331 51.6917 162.471 51.6917C157.209 51.6917 153.577 53.9907 151.578 58.5877C150.525 61.0337 149.999 64.0507 149.999 67.6377C149.999 70.7357 150.56 73.4907 151.683 75.9037Z" fill="white"/>
<path fill-rule="evenodd" clip-rule="evenodd" d="M272.631 59.9087H257.264C256.983 57.9197 256.264 56.1257 255.106 54.5287C253.422 52.3757 250.808 51.2997 247.264 51.2997C242.212 51.2997 238.756 53.6317 236.897 58.2947C235.915 60.7727 235.423 64.0667 235.423 68.1757C235.423 72.0887 235.915 75.2357 236.897 77.6157C238.686 82.0507 242.054 84.2687 247.001 84.2687C250.51 84.2687 253.001 83.3877 254.474 81.6267C255.948 79.8657 256.843 77.5837 257.158 74.7787H272.473C272.122 79.0177 270.473 83.0287 267.526 86.8117C262.825 92.9097 255.86 95.9587 246.633 95.9587C237.406 95.9587 230.617 93.4157 226.266 88.3287C221.916 83.2407 219.74 76.6377 219.74 68.5177C219.74 59.3547 222.144 52.2297 226.95 47.1417C231.757 42.0547 238.388 39.5117 246.843 39.5117C254.036 39.5117 259.921 41.0117 264.5 44.0117C269.078 47.0117 271.789 52.3107 272.631 59.9087Z" fill="white"/>
<path fill-rule="evenodd" clip-rule="evenodd" d="M330.184 94.1001H312.08L298.345 71.3061L292.134 77.3231V94.1001H277.399V22.2451H292.134V61.0831L310.817 41.0281H329.395L309.344 61.4261L330.184 94.1001Z" fill="white"/>
<path fill-rule="evenodd" clip-rule="evenodd" d="M198.658 93.3V40.881L205.95 43.475C206.068 43.517 206.199 43.518 206.319 43.475L213.867 40.79V93.209L206.135 95.959L198.658 93.3Z" fill="white"/>
<path fill-rule="evenodd" clip-rule="evenodd" d="M370.206 94.1H337.531V22H372.554C381.391 22.131 387.652 24.691 391.337 29.68C393.554 32.745 394.663 36.414 394.663 40.686C394.663 45.088 393.554 48.626 391.337 51.3C390.098 52.8 388.271 54.17 385.858 55.409C389.543 56.746 392.323 58.866 394.198 61.768C396.073 64.67 397.011 68.192 397.011 72.333C397.011 76.605 395.935 80.437 393.783 83.828C392.413 86.078 390.701 87.97 388.646 89.502C386.331 91.263 383.6 92.47 380.453 93.122C377.306 93.774 373.891 94.1 370.206 94.1ZM369.863 62.355H351.912V81.578H369.619C372.782 81.578 375.244 81.154 377.005 80.307C380.201 78.741 381.798 75.741 381.798 71.306C381.798 67.556 380.249 64.98 377.152 63.578C375.423 62.795 372.994 62.388 369.863 62.355ZM377.347 48.61C379.304 47.436 380.282 45.333 380.282 42.3C380.282 38.941 378.978 36.724 376.369 35.648C374.119 34.898 371.249 34.523 367.76 34.523H351.912V50.42H369.619C372.782 50.42 375.358 49.816 377.347 48.61Z" fill="url(#paint0_linear_5587_10676)"/>
<path fill-rule="evenodd" clip-rule="evenodd" d="M447.96 45.6749C452.46 51.3169 454.71 57.9849 454.71 65.6809C454.71 73.5069 452.46 80.2009 447.96 85.7609C443.46 91.3199 436.628 94.0999 427.465 94.0999C418.302 94.0999 411.47 91.3199 406.97 85.7609C402.47 80.2009 400.22 73.5069 400.22 65.6809C400.22 57.9849 402.47 51.3169 406.97 45.6749C411.47 40.0339 418.302 37.2129 427.465 37.2129C436.628 37.2129 443.46 40.0339 447.96 45.6749ZM427.416 49.0009C423.34 49.0009 420.201 50.4439 418 53.3299C415.799 56.2159 414.698 60.3329 414.698 65.6809C414.698 71.0289 415.799 75.1539 418 78.0559C420.201 80.9589 423.34 82.4099 427.416 82.4099C431.492 82.4099 434.623 80.9589 436.808 78.0559C438.993 75.1539 440.085 71.0289 440.085 65.6809C440.085 60.3329 438.993 56.2159 436.808 53.3299C434.623 50.4439 431.492 49.0009 427.416 49.0009Z" fill="url(#paint1_linear_5587_10676)"/>
<path fill-rule="evenodd" clip-rule="evenodd" d="M507.176 94.0999H489.812L480.616 78.1049L471.371 94.0999H454.446L472.643 67.0999L455.229 40.8809H472.3L481.203 56.3379L489.909 40.8809H506.491L488.98 66.8549L507.176 94.0999Z" fill="url(#paint2_linear_5587_10676)"/>
<path fill-rule="evenodd" clip-rule="evenodd" d="M213.867 24.6706V33.3266L206.263 36.0316L198.658 33.3266V24.6706L206.075 22.0326C206.197 21.9886 206.331 21.9896 206.45 22.0326L213.867 24.6706Z" fill="white"/>
<defs>
<linearGradient id="paint0_linear_5587_10676" x1="335.951" y1="58.9798" x2="494.29" y2="58.9798" gradientUnits="userSpaceOnUse">
<stop stop-color="#2917EC"/>
<stop offset="0.5" stop-color="#FB9919"/>
<stop offset="1" stop-color="#E32701"/>
</linearGradient>
<linearGradient id="paint1_linear_5587_10676" x1="335.951" y1="57.1209" x2="494.29" y2="57.1209" gradientUnits="userSpaceOnUse">
<stop stop-color="#2917EC"/>
<stop offset="0.5" stop-color="#FB9919"/>
<stop offset="1" stop-color="#E32701"/>
</linearGradient>
<linearGradient id="paint2_linear_5587_10676" x1="335.951" y1="58.9797" x2="494.29" y2="58.9797" gradientUnits="userSpaceOnUse">
<stop stop-color="#2917EC"/>
<stop offset="0.5" stop-color="#FB9919"/>
<stop offset="1" stop-color="#E32701"/>
</linearGradient>
</defs>
</svg>
