<svg width="116" height="118" viewBox="0 0 116 118" fill="none" xmlns="http://www.w3.org/2000/svg">
<path fill-rule="evenodd" clip-rule="evenodd" d="M54.342 0.87375C56.36 -0.29125 58.846 -0.29125 60.863 0.87375L111.945 30.3657C113.963 31.5307 115.206 33.6827 115.206 36.0127V81.4887C115.206 83.8187 113.963 85.9717 111.945 87.1367L60.863 116.629C58.846 117.794 56.36 117.794 54.342 116.629L3.261 87.1367C1.243 85.9717 0 83.8187 0 81.4887V36.0127C0 33.6827 1.243 31.5307 3.261 30.3657L54.342 0.87375ZM12.217 45.5297V78.2007L51.494 100.878V68.2067L12.217 45.5297ZM33.216 27.1777L19.039 35.3617L57.603 57.6267L71.929 49.3557L33.216 27.1777ZM78.072 59.9157L63.711 68.2067V100.878L102.989 78.2007V45.5297L90.289 52.8617C90.289 52.8617 90.289 67.9318 90.289 71.9388C90.289 72.5368 89.967 73.0898 89.447 73.3848C87.334 74.5838 81.801 77.7238 79.314 79.1348C79.057 79.2808 78.741 79.2787 78.485 79.1297C78.23 78.9807 78.072 78.7068 78.072 78.4108C78.072 73.8478 78.072 59.9157 78.072 59.9157ZM96.167 35.3617L57.603 13.0977L45.456 20.1108L84.169 42.2887L96.167 35.3617Z" fill="url(#paint0_linear_5587_10675)"/>
<defs>
<linearGradient id="paint0_linear_5587_10675" x1="3.39136" y1="58.751" x2="112.462" y2="59.1252" gradientUnits="userSpaceOnUse">
<stop stop-color="#EF1A2A"/>
<stop offset="0.5" stop-color="#FFBF36"/>
<stop offset="1" stop-color="#0E32F7"/>
</linearGradient>
</defs>
</svg>
